<svg xmlns="http://www.w3.org/2000/svg" version="1.1" xmlns:xlink="http://www.w3.org/1999/xlink" xmlns:svgjs="http://svgjs.dev/svgjs" width="2000" height="1500" viewBox="0 0 2000 1500"><rect width="2000" height="1500" fill="#ffffff"></rect><g transform="matrix(0.75,0,0,0.75,249.090909090909,475.8176348067577)"><svg viewBox="0 0 396 145" data-background-color="#ffffff" preserveAspectRatio="xMidYMid meet" height="732" width="2000" xmlns="http://www.w3.org/2000/svg" xmlns:xlink="http://www.w3.org/1999/xlink"><g id="tight-bounds" transform="matrix(1,0,0,1,0.2400000000000091,-0.08389261744966348)"><svg viewBox="0 0 395.52 145.16778523489933" height="145.16778523489933" width="395.52"><g><svg viewBox="0 0 395.52 145.16778523489933" height="145.16778523489933" width="395.52"><g><svg viewBox="0 0 395.52 145.16778523489933" height="145.16778523489933" width="395.52"><g id="textblocktransform"><svg viewBox="0 0 395.52 145.16778523489933" height="145.16778523489933" width="395.52" id="textblock"><g><svg viewBox="0 0 395.52 145.16778523489933" height="145.16778523489933" width="395.52"><g transform="matrix(1,0,0,1,0,0)"><svg width="395.52" viewBox="1.55 -43.35 119.19 43.75000000000001" height="145.16778523489933" data-palette-color="#0f0f0f"><path d="M10.75 0.4Q6.1 0.4 3.83-2.88 1.55-6.15 1.55-12.8L1.55-12.8 1.55-31.3Q1.55-37.25 4.2-40.3 6.85-43.35 12.1-43.35L12.1-43.35Q16.35-43.35 18.7-41.65 21.05-39.95 21.95-36.7 22.85-33.45 22.85-28.35L22.85-28.35 14.45-28.35 14.45-32.2Q14.45-33.75 14.03-34.6 13.6-35.45 12.5-35.45L12.5-35.45Q10.05-35.45 10.05-32.25L10.05-32.25 10.05-11.45Q10.05-9.5 10.55-8.5 11.05-7.5 12.3-7.5L12.3-7.5Q13.55-7.5 14.05-8.5 14.55-9.5 14.55-11.45L14.55-11.45 14.55-17.6 12.25-17.6 12.25-25 22.75-25 22.75 0 19.3 0 17.85-3.6Q15.55 0.4 10.75 0.4L10.75 0.4ZM36.25 0.4Q30.6 0.4 28.15-2.7 25.7-5.8 25.7-11.95L25.7-11.95 25.7-26.65Q25.7-31.7 28.6-34.35 31.5-37 36.7-37L36.7-37Q47.25-37 47.25-26.65L47.25-26.65 47.25-24Q47.25-20 47.15-17.5L47.15-17.5 34.45-17.5 34.45-10.4Q34.45-8.5 34.85-7.43 35.25-6.35 36.55-6.35L36.55-6.35Q37.55-6.35 37.97-6.95 38.4-7.55 38.47-8.33 38.55-9.1 38.55-10.6L38.55-10.6 38.55-14.15 47.25-14.15 47.25-12.05Q47.25-5.65 44.77-2.63 42.3 0.4 36.25 0.4L36.25 0.4ZM34.4-21.85L38.55-21.85 38.55-26.55Q38.55-30.5 36.6-30.5L36.6-30.5Q34.4-30.5 34.4-26.55L34.4-26.55 34.4-21.85ZM50.4 0L50.4-36.6 59.15-36.6 59.15-31.95Q59.7-34.2 61.05-35.6 62.4-37 64.65-37L64.65-37Q68.34-37 70.12-34.73 71.9-32.45 71.9-28.25L71.9-28.25 71.9 0 63.3 0 63.3-27.35Q63.3-28.55 62.82-29.4 62.35-30.25 61.35-30.25L61.35-30.25Q60-30.25 59.57-29.03 59.15-27.8 59.15-25.75L59.15-25.75 59.15 0 50.4 0ZM85.59 0.4Q79.94 0.4 77.49-2.7 75.04-5.8 75.04-11.95L75.04-11.95 75.04-26.65Q75.04-31.7 77.94-34.35 80.84-37 86.04-37L86.04-37Q96.59-37 96.59-26.65L96.59-26.65 96.59-24Q96.59-20 96.49-17.5L96.49-17.5 83.79-17.5 83.79-10.4Q83.79-8.5 84.19-7.43 84.59-6.35 85.89-6.35L85.89-6.35Q86.89-6.35 87.32-6.95 87.74-7.55 87.82-8.33 87.89-9.1 87.89-10.6L87.89-10.6 87.89-14.15 96.59-14.15 96.59-12.05Q96.59-5.65 94.12-2.63 91.64 0.4 85.59 0.4L85.59 0.4ZM83.74-21.85L87.89-21.85 87.89-26.55Q87.89-30.5 85.94-30.5L85.94-30.5Q83.74-30.5 83.74-26.55L83.74-26.55 83.74-21.85ZM114.14-18.55L120.74 0 111.99 0 108.29-10.3 104.79 0 98.19 0 104.89-19.65 98.79-36.65 107.69-36.65 110.84-27.75 113.94-36.65 120.44-36.65 114.14-18.55Z" opacity="1" transform="matrix(1,0,0,1,0,0)" fill="#000000" class="wordmark-text-0" data-fill-palette-color="primary" id="text-0"></path></svg></g></svg></g></svg></g></svg></g><g></g></svg></g><defs></defs></svg><rect width="395.52" height="145.16778523489933" fill="none" stroke="none" visibility="hidden"></rect></g></svg></g></svg>